<svg width="1122" height="129" viewBox="0 0 1122 129" fill="none" xmlns="http://www.w3.org/2000/svg">
<path d="M74.6962 128.972L0 0H32.243L86.3395 93.6837L140.436 0H172.5L97.8036 128.972H74.6962Z" fill="black"/>
<path d="M187.5 128.972V0H214.906V128.972H187.5Z" fill="black"/>
<path d="M256.417 128.972C251.64 128.972 247.222 127.778 243.162 125.389C239.102 123.001 235.877 119.777 233.489 115.716C231.1 111.656 229.906 107.238 229.906 102.461V90.4594H257.671V101.028H330.755V78.4579H256.417C251.64 78.4579 247.222 77.2637 243.162 74.8753C239.102 72.4869 235.877 69.3224 233.489 65.3816C231.1 61.3213 229.906 56.8431 229.906 51.947V26.5109C229.906 21.6147 231.1 17.1962 233.489 13.2554C235.877 9.19522 239.102 5.97092 243.162 3.58255C247.222 1.19418 251.64 0 256.417 0H332.367C337.144 0 341.503 1.19418 345.444 3.58255C349.504 5.97092 352.728 9.19522 355.116 13.2554C357.624 17.1962 358.878 21.6147 358.878 26.5109V38.5124H330.755V27.9439H257.671V50.514H332.367C337.144 50.514 341.503 51.7082 345.444 54.0965C349.504 56.4849 352.728 59.7092 355.116 63.7694C357.624 67.7102 358.878 72.1287 358.878 77.0248V102.461C358.878 107.238 357.624 111.656 355.116 115.716C352.728 119.777 349.504 123.001 345.444 125.389C341.503 127.778 337.144 128.972 332.367 128.972H256.417Z" fill="black"/>
<path d="M400.389 128.972C395.612 128.972 391.194 127.778 387.134 125.389C383.073 123.001 379.849 119.777 377.461 115.716C375.072 111.656 373.878 107.238 373.878 102.461V26.5109C373.878 21.6147 375.072 17.1962 377.461 13.2554C379.849 9.19522 383.073 5.97092 387.134 3.58255C391.194 1.19418 395.612 0 400.389 0H476.339C481.116 0 485.475 1.19418 489.415 3.58255C493.476 5.97092 496.7 9.19522 499.088 13.2554C501.596 17.1962 502.85 21.6147 502.85 26.5109V102.461C502.85 107.238 501.596 111.656 499.088 115.716C496.7 119.777 493.476 123.001 489.415 125.389C485.475 127.778 481.116 128.972 476.339 128.972H400.389ZM401.643 101.028H474.727V27.9439H401.643V101.028Z" fill="black"/>
<path d="M568.364 128.972V27.9439H517.85V0H646.822V27.9439H596.308V128.972H568.364Z" fill="black"/>
<path d="M761.954 128.882L724.517 84.2795H760.879L790.615 119.389V128.882H761.954ZM661.822 128.882V0.0895691H764.104C769 0.0895691 773.418 1.28375 777.359 3.67212C781.419 6.06049 784.644 9.28479 787.032 13.345C789.54 17.4052 790.794 21.8237 790.794 26.6004V59.9182C790.794 64.6949 789.54 69.1134 787.032 73.1736C784.644 77.2338 781.419 80.4581 777.359 82.8465C773.418 85.2349 769 86.4291 764.104 86.4291L689.587 86.6082V128.882H661.822ZM689.587 58.4852H762.671V27.8543H689.587V58.4852Z" fill="black"/>
<path d="M805.794 128.972V26.5109C805.794 21.6147 806.988 17.1962 809.376 13.2554C811.765 9.19522 814.989 5.97092 819.049 3.58255C823.109 1.19418 827.528 0 832.305 0H908.076C912.972 0 917.39 1.19418 921.331 3.58255C925.391 5.97092 928.615 9.19522 931.004 13.2554C933.512 17.1962 934.765 21.6147 934.765 26.5109V128.972H906.643V87.4142H833.558V128.972H805.794ZM833.558 59.4703H906.643V27.9439H833.558V59.4703Z" fill="black"/>
<path d="M949.766 128.972V0H977.172V128.972H949.766Z" fill="black"/>
<path d="M992.172 128.972V0H1020.83L1093.02 85.9812V0H1121.14V128.972H1092.48L1019.94 42.6324V128.972H992.172Z" fill="black"/>
</svg>
